<svg xmlns="http://www.w3.org/2000/svg" xmlns:xlink="http://www.w3.org/1999/xlink" version="1.1" x="0px" y="0px" viewBox="-0.189 100.011 100 125" enable-background="new -0.189 100.011 100 100" xml:space="preserve"><g><g><path d="M10.682,165.219c9.46,7.2,18.92,14.401,28.38,21.602c4.536,3.452,10.931,0.501,13.682-3.588    c13.157-19.552,26.314-39.104,39.472-58.656c7.223-10.734-10.111-20.732-17.27-10.095c-13.157,19.552-26.314,39.104-39.471,58.657    c4.561-1.196,9.121-2.392,13.682-3.588c-9.46-7.2-18.92-14.401-28.38-21.602c-4.349-3.31-11.179-0.686-13.682,3.588    C4.087,156.672,6.354,161.924,10.682,165.219L10.682,165.219z"/></g></g><text x="-0.189" y="215.011" fill="#000000" font-size="5px" font-weight="bold" font-family="'Helvetica Neue', Helvetica, Arial-Unicode, Arial, Sans-serif">Created by Por Suppasit</text><text x="-0.189" y="220.011" fill="#000000" font-size="5px" font-weight="bold" font-family="'Helvetica Neue', Helvetica, Arial-Unicode, Arial, Sans-serif">from the Noun Project</text></svg>